<svg width="26" height="26" viewBox="0 0 26 26" fill="none" xmlns="http://www.w3.org/2000/svg">
<g opacity="0.8">
<path d="M13 0.321735C5.81831 0.321735 0 6.14492 0 13.3217C0 19.0685 3.7245 23.9395 8.88631 25.6579C9.53875 25.7806 9.77438 25.3784 9.77438 25.0307C9.77438 24.7219 9.76706 23.9054 9.76219 22.8215C6.14413 23.6047 5.382 21.0738 5.382 21.0738C4.78969 19.5755 3.93494 19.1734 3.93494 19.1734C2.75844 18.3698 4.02838 18.3869 4.02838 18.3869C5.33163 18.4754 6.01738 19.7234 6.01738 19.7234C7.17681 21.7124 9.05938 21.1372 9.80444 20.8024C9.91819 19.9647 10.257 19.3887 10.6259 19.0677C7.73988 18.7419 4.70519 17.6247 4.70519 12.6433C4.70519 11.2206 5.20894 10.062 6.04175 9.15199C5.89794 8.82617 5.45756 7.5018 6.15631 5.71105C6.15631 5.71105 7.24425 5.36411 9.73131 7.04436C10.7721 6.75592 11.8771 6.61211 12.9813 6.6048C14.0863 6.61211 15.1905 6.75674 16.2313 7.04436C18.7038 5.36411 19.7909 5.71105 19.7909 5.71105C20.4888 7.5018 20.0484 8.82536 19.9217 9.15199C20.7464 10.062 21.2501 11.2214 21.2501 12.6433C21.2501 17.6361 18.2114 18.737 15.3221 19.0547C15.7739 19.4439 16.1972 20.2442 16.1972 21.4589C16.1972 23.1977 16.1809 24.5984 16.1809 25.0217C16.1809 25.3597 16.4084 25.766 17.0779 25.6352C22.2779 23.9346 25.9984 19.0596 25.9984 13.3209C25.9984 6.14411 20.1801 0.320923 12.9984 0.320923L13 0.321735Z" fill="#EAEAEA"/>
</g>
</svg>
