<svg width="24" height="24" viewBox="0 0 24 24" fill="none" xmlns="http://www.w3.org/2000/svg">
<g clip-path="url(#clip0_20_55)">
<path d="M21.3118 4.44187C21.2687 4.3875 21.2237 4.33312 21.1768 4.27875C20.0718 2.96062 18.6953 1.89638 17.1415 1.15862C15.5877 0.420863 13.893 0.0269473 12.1731 0.00375C12.115 0.001875 12.0587 0 12.0006 0C11.9425 0 11.8862 0.001875 11.8281 0.00375C10.1017 0.0271731 8.40085 0.424087 6.84242 1.16722C5.28398 1.91034 3.90491 2.98207 2.79997 4.30875C2.76848 4.34258 2.73905 4.37827 2.71184 4.41562C2.71044 4.41844 2.70853 4.42098 2.70622 4.42312C0.956655 6.56064 0.000732422 9.23776 0.000732422 12C0.000732422 14.7622 0.956655 17.4393 2.70622 19.5769C2.70853 19.579 2.71044 19.5815 2.71184 19.5844C2.73905 19.6217 2.76848 19.6574 2.79997 19.6912L2.80184 19.6931C3.90665 21.0193 5.28547 22.0906 6.84358 22.8334C8.40169 23.5762 10.1021 23.9729 11.8281 23.9962C11.9432 24 12.058 24 12.1731 23.9962C13.893 23.973 15.5877 23.5791 17.1415 22.8414C18.6953 22.1036 20.0718 21.0394 21.1768 19.7212C21.2237 19.6669 21.2687 19.6125 21.3118 19.5581C23.051 17.4231 24.0006 14.7537 24.0006 12C24.0006 9.24631 23.051 6.57687 21.3118 4.44187V4.44187ZM18.655 11.6719C18.6364 9.89378 18.3797 8.12619 17.8918 6.41624C18.96 6.07914 19.9802 5.60588 20.9275 5.00812C22.4262 6.91265 23.2717 9.24926 23.3387 11.6719H18.655ZM12.3287 0.673124C14.3331 0.879374 16.0768 2.94937 17.0837 5.97937C15.5338 6.40476 13.9358 6.63034 12.3287 6.65062V0.673124ZM11.6725 6.65062C10.0653 6.63034 8.4674 6.40476 6.91747 5.97937C7.92434 2.94937 9.66809 0.879374 11.6725 0.673124V6.65062ZM11.6725 7.30687V11.6719H6.00247C6.02036 9.9588 6.26306 8.2555 6.72434 6.60562C8.33688 7.05031 9.99987 7.28599 11.6725 7.30687V7.30687ZM11.6725 12.3281V16.6931C9.99987 16.714 8.33688 16.9497 6.72434 17.3944C6.26306 15.7445 6.02036 14.0412 6.00247 12.3281H11.6725ZM11.6725 17.3494V23.3269C9.66809 23.1206 7.92434 21.0506 6.91747 18.0206C8.4674 17.5952 10.0653 17.3696 11.6725 17.3494V17.3494ZM12.3287 17.3494C13.9358 17.3696 15.5338 17.5952 17.0837 18.0206C16.0768 21.0506 14.3331 23.1206 12.3287 23.3269V17.3494ZM12.3287 16.6931V12.3281H17.9987C17.9808 14.0418 17.7381 15.7457 17.2768 17.3962C15.6647 16.9492 14.0015 16.7129 12.3287 16.6931V16.6931ZM12.3287 11.6719V7.30687C14.0015 7.28711 15.6647 7.05076 17.2768 6.60374C17.7381 8.25427 17.9808 9.95819 17.9987 11.6719H12.3287ZM20.5037 4.49812C19.6252 5.04547 18.6816 5.48072 17.695 5.79374C16.975 3.6525 15.8931 1.95 14.605 0.958124C16.8898 1.50024 18.9505 2.73694 20.5037 4.49812V4.49812ZM9.39622 0.958124C8.10809 1.95 7.02622 3.6525 6.30622 5.79374C5.32028 5.47976 4.37689 5.04522 3.49747 4.5C5.04972 2.73729 7.11076 1.49975 9.39622 0.958124V0.958124ZM3.07372 5.00625C4.02078 5.60524 5.04105 6.07977 6.10934 6.41812C5.62132 8.12739 5.36466 9.89438 5.34622 11.6719H0.662465C0.729456 9.24869 1.57493 6.91148 3.07372 5.00625V5.00625ZM5.34622 12.3281C5.36466 14.1056 5.62132 15.8726 6.10934 17.5819V17.5837C5.04082 17.9207 4.02045 18.3946 3.07372 18.9937C1.57493 17.0885 0.729456 14.7513 0.662465 12.3281H5.34622ZM3.49747 19.5C4.37689 18.9548 5.32028 18.5202 6.30622 18.2062C7.02622 20.3475 8.10809 22.05 9.39622 23.0419C7.11077 22.5002 5.04973 21.2627 3.49747 19.5V19.5ZM14.605 23.0419C15.8931 22.05 16.975 20.3475 17.695 18.2062C18.6816 18.5192 19.6252 18.9545 20.5037 19.5019C18.9505 21.263 16.8898 22.4997 14.605 23.0419V23.0419ZM20.9275 18.9919C19.9802 18.3941 18.96 17.9208 17.8918 17.5837C18.3797 15.8738 18.6364 14.1062 18.655 12.3281H23.3387C23.2717 14.7507 22.4262 17.0873 20.9275 18.9919V18.9919Z" fill="#EAEAEA" fill-opacity="0.7"/>
</g>
<defs>
<clipPath id="clip0_20_55">
<rect width="24" height="24" fill="white"/>
</clipPath>
</defs>
</svg>
